# xmcd
#
# Track frame offsets:
# 150
# 12635
# 23085
# 35983
# 51127
# 58241
# 74937
# 84227
# 94504
# 106059
# 107978
# 114177
# 123121
# 131157
# 143378
# 153701
# 164145
# 173488
# 182724
# 188757
# 199980
# 204830
# 217568
# 225497
# 230193
# 235409
# 248093
# 259482
# 267055
# 276117
#
# Disc length: 3759 seconds
#
#
# Revision: 0
# Processed by: cddbd v1.5.1PL0 Copyright (c) Steve Scherf et al.
# Submitted via: FreeRIP 2.51 
#
DISCID=af0ead1e
DTITLE=DANCE MIX 2005 - 
DYEAR=1900
DGENRE=Acid
TTITLE0=MY NUMPER ONE PAPARIZOU
TTITLE1=ETSI XRISTOFOROU
TTITLE2=CHICULATA XNTHIOTIS
TTITLE3=PARAMITHI TIS XALIMAS SARBEL MERKOURI
TTITLE4=ARABIAN DANCE
TTITLE5=I LOVE YOU MASSINO
TTITLE6=OK PAPARIZOU
TTITLE7=ANAPANTITES KLISIS REMIX PAPARIZOU
TTITLE8=XORIS TO MORO MOU VISI
TTITLE9=XORIS TO MORO MOU VISI LIVE
TTITLE10=MOU LIPI TO KORITSAKI BALANTHS
TTITLE11=FOVERI MAZONAKIS
TTITLE12=POU NA FANTASTO MERKOURH
TTITLE13=OI XORISMENOI BANDI
TTITLE14=CALL ME EISE BANDI
TTITLE15=XAMOGELASE REMOS
TTITLE16=KLEISAME MAZI ENA XRONO BALANTHS
TTITLE17=KATHE FORA PROTOPSALTI
TTITLE18=SEXY NINO
TTITLE19=BYE BYE KOKINOU TSALIKIS
TTITLE20=ASE ME LIPON XATZIGIANIS
TTITLE21=KANTO AN ME AGAPAS BANDI
TTITLE22=MILA MOU KARAFOTIS LITRA
TTITLE23=OTI KE NA GINI GLIKERIA
TTITLE24=O AGELOS MOU PROTOPSALTI
TTITLE25=DJ DANCE
TTITLE26=AN DE SE DO BALANTIS
TTITLE27=EXO PETHANI GIA SENA
TTITLE28=EGO IME DO REMOS
TTITLE29=OH BABY BABY
EXTD=
EXTT0=
EXTT1=
EXTT2=
EXTT3=
EXTT4=
EXTT5=
EXTT6=
EXTT7=
EXTT8=
EXTT9=
EXTT10=
EXTT11=
EXTT12=
EXTT13=
EXTT14=
EXTT15=
EXTT16=
EXTT17=
EXTT18=
EXTT19=
EXTT20=
EXTT21=
EXTT22=
EXTT23=
EXTT24=
EXTT25=
EXTT26=
EXTT27=
EXTT28=
EXTT29=
PLAYORDER=
